<svg width="158" height="36" viewBox="0 0 158 36" fill="none" xmlns="http://www.w3.org/2000/svg">
<path d="M53.41 28L46.215 18.2639H43.3313L52.0681 7.1573H57.4358L49.5841 17.1218L49.527 15.0947L59.0633 28H53.41ZM39.7053 28V7.1573H44.3877V28H39.7053ZM70.229 28V23.3746H69.4581V18.3495C69.4581 17.5501 69.2677 16.9505 68.887 16.5508C68.5063 16.1511 67.8972 15.9512 67.0597 15.9512C66.641 15.9512 66.089 15.9607 65.4037 15.9798C64.7185 15.9988 64.0142 16.0273 63.2909 16.0654C62.5676 16.1035 61.9109 16.1416 61.3209 16.1796V12.3251C61.7586 12.2871 62.2726 12.249 62.8626 12.2109C63.4527 12.1729 64.0618 12.1443 64.6899 12.1253C65.3181 12.1063 65.9081 12.0967 66.4601 12.0967C68.059 12.0967 69.401 12.3251 70.4859 12.782C71.5899 13.2388 72.4274 13.9336 72.9985 14.8662C73.5695 15.7799 73.855 16.96 73.855 18.4066V28H70.229ZM65.2324 28.3997C64.1094 28.3997 63.1196 28.1999 62.2631 27.8001C61.4255 27.4004 60.7689 26.8294 60.293 26.087C59.8171 25.3257 59.5792 24.4215 59.5792 23.3746C59.5792 22.2326 59.8742 21.2999 60.4643 20.5766C61.0544 19.8342 61.8824 19.2917 62.9483 18.9491C64.0142 18.5875 65.2419 18.4066 66.6315 18.4066H69.972V20.9477H66.6029C65.8035 20.9477 65.1848 21.1476 64.747 21.5473C64.3283 21.928 64.1189 22.4515 64.1189 23.1177C64.1189 23.7458 64.3283 24.2597 64.747 24.6595C65.1848 25.0401 65.8035 25.2305 66.6029 25.2305C67.1168 25.2305 67.5737 25.1448 67.9734 24.9735C68.3921 24.7832 68.7348 24.4691 69.0012 24.0313C69.2677 23.5935 69.42 22.9844 69.4581 22.204L70.543 23.3461C70.4479 24.431 70.1814 25.3447 69.7436 26.087C69.3248 26.8294 68.7348 27.4004 67.9734 27.8001C67.231 28.1999 66.3174 28.3997 65.2324 28.3997ZM84.8403 28.1999C83.2604 28.1999 81.9851 28.0095 81.0143 27.6288C80.0436 27.2291 79.3298 26.5724 78.873 25.6588C78.4352 24.7261 78.2163 23.4698 78.2163 21.8899V8.12806H82.4705V22.0613C82.4705 22.8036 82.6608 23.3746 83.0415 23.7744C83.4412 24.155 84.0027 24.3454 84.7261 24.3454H87.0387V28.1999H84.8403ZM75.8465 15.6942V12.3537H87.0387V15.6942H75.8465ZM90.3677 28V6.98599H95.0502V28H90.3677ZM103.016 28L96.906 19.0348H102.045L108.441 28H103.016ZM93.7939 21.3189V17.6358H98.9332C99.6184 17.6358 100.208 17.5025 100.703 17.236C101.217 16.9505 101.608 16.5603 101.874 16.0654C102.16 15.5515 102.302 14.9614 102.302 14.2952C102.302 13.629 102.16 13.0485 101.874 12.5536C101.608 12.0396 101.217 11.6494 100.703 11.3829C100.208 11.0974 99.6184 10.9547 98.9332 10.9547H93.7939V6.98599H98.562C100.294 6.98599 101.798 7.25247 103.073 7.78544C104.348 8.29937 105.329 9.07026 106.014 10.0981C106.699 11.126 107.042 12.4203 107.042 13.9811V14.438C107.042 15.9798 106.69 17.2646 105.985 18.2924C105.3 19.3013 104.32 20.0626 103.045 20.5766C101.788 21.0715 100.294 21.3189 98.562 21.3189H93.7939ZM111.709 28V12.3537H116.277V28H111.709ZM109.625 15.7228V12.3537H116.277V15.7228H109.625ZM113.479 10.8119C112.623 10.8119 111.985 10.593 111.566 10.1552C111.167 9.6984 110.967 9.12736 110.967 8.44213C110.967 7.73785 111.167 7.16682 111.566 6.72903C111.985 6.2722 112.623 6.04379 113.479 6.04379C114.336 6.04379 114.964 6.2722 115.364 6.72903C115.783 7.16682 115.992 7.73785 115.992 8.44213C115.992 9.12736 115.783 9.6984 115.364 10.1552C114.964 10.593 114.336 10.8119 113.479 10.8119ZM120.503 28V12.3537H124.129V19.0633H123.872C123.872 17.4644 124.072 16.132 124.471 15.0661C124.89 14.0002 125.518 13.2007 126.356 12.6678C127.193 12.1348 128.212 11.8683 129.411 11.8683H129.611C131.438 11.8683 132.827 12.4679 133.779 13.6671C134.75 14.8472 135.235 16.646 135.235 19.0633V28H130.667V18.8064C130.667 17.9689 130.42 17.2836 129.925 16.7507C129.43 16.2177 128.764 15.9512 127.926 15.9512C127.069 15.9512 126.375 16.2272 125.842 16.7792C125.328 17.3122 125.071 18.0164 125.071 18.892V28H120.503ZM145.295 34.2243C144.534 34.2243 143.753 34.1957 142.954 34.1386C142.155 34.0815 141.422 34.0054 140.756 33.9102V30.0557C141.422 30.1509 142.155 30.227 142.954 30.2841C143.772 30.3603 144.515 30.3983 145.181 30.3983C146.418 30.3983 147.418 30.2556 148.179 29.9701C148.959 29.6845 149.53 29.2468 149.892 28.6567C150.254 28.0857 150.435 27.3433 150.435 26.4297V23.3175L151.263 21.4902C151.224 22.8797 150.948 24.0694 150.435 25.0592C149.94 26.049 149.245 26.8103 148.35 27.3433C147.456 27.8572 146.39 28.1142 145.152 28.1142C144.087 28.1142 143.116 27.9239 142.24 27.5432C141.384 27.1435 140.651 26.5915 140.042 25.8872C139.433 25.1829 138.966 24.3644 138.643 23.4317C138.319 22.48 138.157 21.4522 138.157 20.3482V19.6915C138.157 18.5875 138.329 17.5596 138.671 16.6079C139.014 15.6562 139.509 14.8282 140.156 14.1239C140.803 13.4196 141.574 12.8771 142.469 12.4965C143.363 12.0967 144.353 11.8969 145.438 11.8969C146.694 11.8969 147.779 12.1729 148.693 12.7249C149.626 13.2769 150.358 14.0858 150.891 15.1518C151.424 16.2177 151.71 17.5025 151.748 19.0062L151.12 19.1775V12.3537H154.746V26.1441C154.746 28.0666 154.403 29.6179 153.718 30.7981C153.033 31.9782 151.986 32.8443 150.577 33.3963C149.188 33.9483 147.427 34.2243 145.295 34.2243ZM146.58 24.2597C147.284 24.2597 147.922 24.1075 148.493 23.8029C149.064 23.4793 149.511 23.0225 149.835 22.4324C150.178 21.8424 150.349 21.1286 150.349 20.2911V19.4631C150.349 18.6446 150.168 17.9593 149.806 17.4073C149.464 16.8363 149.007 16.408 148.436 16.1225C147.865 15.818 147.256 15.6657 146.609 15.6657C145.847 15.6657 145.172 15.8465 144.581 16.2082C143.991 16.5698 143.535 17.0742 143.211 17.7214C142.887 18.3686 142.726 19.13 142.726 20.0055C142.726 20.9002 142.887 21.6711 143.211 22.3182C143.554 22.9464 144.01 23.4317 144.581 23.7744C145.172 24.0979 145.838 24.2597 146.58 24.2597Z" fill="#047A45"/>
<path d="M2.207 29.6217L10.91 20.9187M2.207 29.6217C1.05349 18.0866 4.85848 11.3702 10.1971 8.21696M2.207 29.6217C14.203 31.033 26.9048 22.33 24.7878 7.04087M24.7878 7.04087L10.91 20.9187M24.7878 7.04087C20.1847 5.43514 14.656 5.58328 10.1971 8.21696M10.91 20.9187L10.1971 8.21696" stroke="#047A45" stroke-width="3.76347" stroke-linecap="round" stroke-linejoin="round"/>
</svg>
